<svg width="1024" height="347" viewBox="0 0 1024 347" fill="none" xmlns="http://www.w3.org/2000/svg">
<path d="M7 68C7 34.3106 34.3106 7 68 7V7C101.689 7 129 34.3106 129 68V144H7V68Z" fill="#FFFEFA"/>
<path d="M0 68C0 30.4446 30.4446 0 68 0C105.555 0 136 30.4446 136 68H122C122 38.1766 97.8234 14 68 14C38.1766 14 14 38.1766 14 68H0ZM14 68M129 144H7H129M0 144V68C0 30.4446 30.4446 0 68 0V14C38.1766 14 14 38.1766 14 68V144H0ZM68 0C105.555 0 136 30.4446 136 68V144H122V68C122 38.1766 97.8234 14 68 14V0Z" fill="black"/>
<path d="M129 68C129 34.3106 156.311 7 190 7V7C223.689 7 251 34.3106 251 68V144H129V68Z" fill="#FFFEFA"/>
<path d="M122 68C122 30.4446 152.445 0 190 0C227.555 0 258 30.4446 258 68H244C244 38.1766 219.823 14 190 14C160.177 14 136 38.1766 136 68H122ZM136 68M251 144H129H251M122 144V68C122 30.4446 152.445 0 190 0V14C160.177 14 136 38.1766 136 68V144H122ZM190 0C227.555 0 258 30.4446 258 68V144H244V68C244 38.1766 219.823 14 190 14V0Z" fill="black"/>
<path d="M251 269C251 302.689 223.689 330 190 330V330C156.311 330 129 302.689 129 269V193H251V269Z" fill="#FFFEFA"/>
<path d="M258 269C258 306.555 227.555 337 190 337C152.445 337 122 306.555 122 269H136C136 298.823 160.177 323 190 323C219.823 323 244 298.823 244 269H258ZM244 269M129 193H251H129M258 193V269C258 306.555 227.555 337 190 337V323C219.823 323 244 298.823 244 269V193H258ZM190 337C152.445 337 122 306.555 122 269V193H136V269C136 298.823 160.177 323 190 323V337Z" fill="black"/>
<path d="M129 269C129 302.689 101.689 330 68 330V330C34.3106 330 7 302.689 7 269V193H129V269Z" fill="#FFFEFA"/>
<path d="M136 269C136 306.555 105.555 337 68 337C30.4446 337 0 306.555 0 269H14C14 298.823 38.1766 323 68 323C97.8234 323 122 298.823 122 269H136ZM122 269M7 193H129H7M136 193V269C136 306.555 105.555 337 68 337V323C97.8234 323 122 298.823 122 269V193H136ZM68 337C30.4446 337 0 306.555 0 269V193H14V269C14 298.823 38.1766 323 68 323V337Z" fill="black"/>
<path d="M7 144H251V193H7V144Z" fill="#FFFEFA"/>
<path d="M251 144H244V193H251H258V144H251ZM7 193H14V144H7H0V193H7Z" fill="black"/>
<ellipse cx="129" cy="143.5" rx="7" ry="7.5" fill="black"/>
<ellipse cx="129" cy="192.5" rx="7" ry="7.5" fill="black"/>
<path d="M372.83 260.011C392.16 260.005 407.83 275.67 407.83 295V295C407.83 314.33 392.16 330.005 372.83 330.011L312 330.03V260.03L372.83 260.011Z" fill="#FFFEFA"/>
<path d="M372.83 253.011C396.026 253.004 414.83 271.802 414.83 294.998C414.83 318.194 396.026 337.004 372.83 337.011V323.011C388.294 323.006 400.83 310.466 400.83 295.002C400.83 279.538 388.294 267.006 372.83 267.011V253.011ZM372.83 267.011M312 330.03V260.03V330.03M312 253.03L372.83 253.011C396.026 253.004 414.83 271.802 414.83 294.998L400.83 295.002C400.83 279.538 388.294 267.006 372.83 267.011L312 267.03V253.03ZM414.83 294.998C414.83 318.194 396.026 337.004 372.83 337.011L312 337.03V323.03L372.83 323.011C388.294 323.006 400.83 310.466 400.83 295.002L414.83 294.998Z" fill="black"/>
<path d="M369.021 135.011C388.351 135.005 404.021 150.67 404.021 170V170C404.021 189.33 388.351 205.005 369.021 205.011L309 205.03V135.03L369.021 135.011Z" fill="#FFFEFA"/>
<path d="M369.021 128.011C392.217 128.004 411.021 146.802 411.021 169.998C411.021 193.194 392.217 212.004 369.021 212.011V198.011C384.485 198.006 397.021 185.466 397.021 170.002C397.021 154.538 384.485 142.006 369.021 142.011V128.011ZM369.021 142.011M309 205.03V135.03V205.03M309 128.03L369.021 128.011C392.217 128.004 411.021 146.802 411.021 169.998L397.021 170.002C397.021 154.538 384.485 142.006 369.021 142.011L309 142.03V128.03ZM411.021 169.998C411.021 193.194 392.217 212.004 369.021 212.011L309 212.03V198.03L369.021 198.011C384.485 198.006 397.021 185.466 397.021 170.002L411.021 169.998Z" fill="black"/>
<path d="M344.587 205.095C359.727 205.09 372 217.359 372 232.499V232.499C372 247.639 359.727 259.916 344.587 259.921L276.001 259.942V205.116L344.587 205.095Z" fill="#FFFEFA"/>
<path d="M344.587 198.095C363.593 198.089 379 213.491 379 232.497C379 251.503 363.593 266.915 344.587 266.921V252.921C355.861 252.917 365 243.775 365 232.501C365 221.227 355.861 212.091 344.587 212.095V198.095ZM344.587 212.095M276.001 259.942V205.116V259.942M276.001 198.116L344.587 198.095C363.593 198.089 379 213.491 379 232.497L365 232.501C365 221.227 355.861 212.091 344.587 212.095L276.001 212.116V198.116ZM379 232.497C379 251.503 363.593 266.915 344.587 266.921L276.001 266.942V252.942L344.587 252.921C355.861 252.917 365 243.775 365 232.501L379 232.497Z" fill="black"/>
<path d="M316 330.085C292.804 330.094 274 311.298 274 288.102V177.133C274 153.937 292.804 135.125 316 135.116V135.116V330.085V330.085Z" fill="#FFFEFA"/>
<path d="M316 337.085C288.938 337.096 267 315.166 267 288.104V177.136C267 150.074 288.938 128.127 316 128.116V142.116C296.67 142.124 281 157.8 281 177.13V288.099C281 307.429 296.67 323.093 316 323.085V337.085ZM316 323.085M316 135.116V330.085V135.116M316 337.085C288.938 337.096 267 315.166 267 288.104L281 288.099C281 307.429 296.67 323.093 316 323.085V337.085ZM267 177.136C267 150.074 288.938 128.127 316 128.116V142.116C296.67 142.124 281 157.8 281 177.13L267 177.136Z" fill="black"/>
<path d="M316 197.999C319.866 197.998 323 201.134 323 205.004C323 208.874 319.866 212.012 316 212.013C312.134 212.015 309 208.878 309 205.009C309 201.139 312.134 198 316 197.999Z" fill="black"/>
<path d="M316 253.006C319.866 253.004 323 256.137 323 260.003C323 263.869 319.866 267.004 316 267.006C312.134 267.007 309 263.874 309 260.008C309 256.142 312.134 253.007 316 253.006Z" fill="black"/>
<path d="M546.512 294.859C546.511 314.47 530.612 330.367 511.002 330.367H502L502.001 294.859H546.512V294.859Z" fill="#FFFEFA"/>
<path d="M553.512 294.859C553.51 318.336 534.478 337.367 511.002 337.367H501.999L502 323.367H511.002C526.747 323.367 539.511 310.604 539.512 294.859H553.512ZM539.512 294.859M502.001 294.859H546.512H502.001M553.512 294.859C553.51 318.336 534.478 337.367 511.002 337.367L511.002 323.367C526.747 323.367 539.511 310.604 539.512 294.859H553.512ZM539.512 294.859M502 330.367L502.001 294.859L502 330.367" fill="black"/>
<path d="M502 259.859H511.523C530.853 259.859 546.523 275.529 546.522 294.859V294.859H501.998L502 259.859Z" fill="#FFFEFA"/>
<path d="M502 252.859H511.524C534.72 252.859 553.523 271.663 553.522 294.859H539.522C539.523 279.395 526.987 266.859 511.523 266.859H502L502 252.859ZM502 266.859M546.522 294.859H501.998H546.522M546.522 294.859M501.998 294.859L502 259.859L501.998 294.859M511.524 252.859C534.72 252.859 553.523 271.663 553.522 294.859H539.522C539.523 279.395 526.987 266.859 511.523 266.859L511.524 252.859Z" fill="black"/>
<path d="M502.006 330.367H497.449C461.306 330.367 432.007 301.067 432.009 264.924V264.924H502.009L502.006 330.367Z" fill="#FFFEFA"/>
<path d="M502.006 337.367H497.449C457.439 337.367 425.007 304.933 425.009 264.924H439.009C439.007 297.201 465.172 323.367 497.45 323.367H502.006L502.006 337.367ZM502.006 323.367M432.009 264.924H502.009H432.009M432.009 264.924M502.009 264.924L502.006 330.367L502.009 264.924M497.449 337.367C457.439 337.367 425.007 304.933 425.009 264.924H439.009C439.007 297.201 465.172 323.367 497.45 323.367L497.449 337.367Z" fill="black"/>
<path d="M432.008 175.157C432.009 155.74 447.75 140 467.167 140V140C486.583 140 502.323 155.74 502.322 175.157L502.317 266.857H432.004L432.008 175.157Z" fill="#FFFEFA"/>
<path d="M425.008 175.157C425.009 151.874 443.884 133 467.167 133C490.449 133 509.323 151.874 509.322 175.157H495.322C495.322 159.606 482.717 147 467.166 147C451.616 147 439.009 159.606 439.008 175.157H425.008ZM439.008 175.157M502.317 266.857H432.004H502.317M425.004 266.857L425.008 175.157C425.009 151.874 443.884 133 467.167 133L467.166 147C451.616 147 439.009 159.606 439.008 175.157L439.004 266.857H425.004ZM467.167 133C490.449 133 509.323 151.874 509.322 175.157L509.317 266.857H495.317L495.322 175.157C495.322 159.606 482.717 147 467.166 147L467.167 133Z" fill="black"/>
<path d="M570.589 296.575C570.264 315.902 585.67 331.57 605 331.57V331.57C624.33 331.57 640.264 315.902 640.589 296.575L641.326 252.839H571.326L570.589 296.575Z" fill="#FFFEFA"/>
<path d="M563.589 296.575C563.199 319.768 581.686 338.569 604.882 338.569C628.078 338.569 647.199 319.768 647.589 296.575H633.589C633.329 312.037 620.582 324.571 605.118 324.571C589.654 324.571 577.329 312.037 577.589 296.575H563.589ZM577.589 296.575M641.326 252.839H571.326H641.326M564.326 252.839L563.589 296.575C563.199 319.768 581.686 338.569 604.882 338.569L605.118 324.571C589.654 324.571 577.329 312.037 577.589 296.575L578.326 252.839H564.326ZM604.882 338.569C628.078 338.569 647.199 319.768 647.589 296.575L648.326 252.839H634.326L633.589 296.575C633.329 312.037 620.582 324.571 605.118 324.571L604.882 338.569Z" fill="black"/>
<path d="M571.277 220.875V252.844L642.405 253.482V221.513L571.277 220.875Z" fill="#FFFEFA"/>
<path d="M571.277 220.875L578.277 220.938V252.907L571.277 252.844L564.278 252.781V220.812L571.277 220.875Z" fill="black"/>
<path d="M699.344 203.366C699.859 166.713 670.561 137 633.905 137V137L632.962 204.039H699.334L699.344 203.366Z" fill="#FFFEFA"/>
<path d="M706.344 203.366C706.914 162.847 674.526 130.001 634.004 130.001L633.807 143.999C666.597 143.999 692.805 170.579 692.344 203.366H706.344ZM692.344 203.366M632.962 204.039H699.334H632.962M706.334 204.039L706.344 203.366C706.914 162.847 674.526 130.001 634.004 130.001L633.807 143.999C666.597 143.999 692.805 170.579 692.344 203.366L692.334 204.039H706.334ZM692.334 204.039M633.905 137L632.962 204.039L633.905 137" fill="black"/>
<path d="M634.242 257.164H642.904C673.667 257.164 698.966 232.228 699.411 201.468V201.468H635.047L634.242 257.164Z" fill="#FFFEFA"/>
<path d="M634.141 264.163H642.803C677.432 264.163 705.91 236.094 706.411 201.468H692.411C692.022 228.362 669.902 250.165 643.005 250.165H634.343L634.141 264.163ZM634.343 250.165M699.411 201.468H635.047H699.411M699.411 201.468M635.047 201.468L634.242 257.164L635.047 201.468M642.803 264.163C677.432 264.163 705.91 236.094 706.411 201.468H692.411C692.022 228.362 669.902 250.165 643.005 250.165L642.803 264.163Z" fill="black"/>
<path d="M638.199 137V137C602.024 137 572.204 166.322 571.595 202.493L571.259 222.399H636.761L638.199 137Z" fill="#FFFEFA"/>
<path d="M638.317 130.001C598.275 130.001 565.269 162.457 564.595 202.493H578.595C579.138 170.187 605.772 143.999 638.081 143.999L638.317 130.001ZM638.081 143.999M571.259 222.399H636.761H571.259M571.259 222.399M636.761 222.399L638.199 137L636.761 222.399M638.317 130.001C598.275 130.001 565.269 162.457 564.595 202.493L564.259 222.399H578.259L578.595 202.493C579.138 170.187 605.772 143.999 638.081 143.999L638.317 130.001Z" fill="black"/>
<path d="M634.277 192C635.934 192 637.277 193.343 637.277 195V208H631.277V195L631.281 194.846C631.362 193.261 632.672 192 634.277 192Z" stroke="black" stroke-width="10"/>
<path d="M821.83 262.011C841.16 262.005 856.83 277.67 856.83 297V297C856.83 316.33 841.16 332.005 821.83 332.011L761 332.03V262.03L821.83 262.011Z" fill="#FFFEFA"/>
<path d="M821.83 255.011C845.026 255.004 863.83 273.802 863.83 296.998C863.83 320.194 845.026 339.004 821.83 339.011V325.011C837.294 325.006 849.83 312.466 849.83 297.002C849.83 281.538 837.294 269.006 821.83 269.011V255.011ZM821.83 269.011M761 332.03V262.03V332.03M761 255.03L821.83 255.011C845.026 255.004 863.83 273.802 863.83 296.998L849.83 297.002C849.83 281.538 837.294 269.006 821.83 269.011L761 269.03V255.03ZM863.83 296.998C863.83 320.194 845.026 339.004 821.83 339.011L761 339.03V325.03L821.83 325.011C837.294 325.006 849.83 312.466 849.83 297.002L863.83 296.998Z" fill="black"/>
<path d="M818.021 137.011C837.351 137.005 853.021 152.67 853.021 172V172C853.021 191.33 837.351 207.005 818.021 207.011L758 207.03V137.03L818.021 137.011Z" fill="#FFFEFA"/>
<path d="M818.021 130.011C841.217 130.004 860.021 148.802 860.021 171.998C860.021 195.194 841.217 214.004 818.021 214.011V200.011C833.485 200.006 846.021 187.466 846.021 172.002C846.021 156.538 833.485 144.006 818.021 144.011V130.011ZM818.021 144.011M758 207.03V137.03V207.03M758 130.03L818.021 130.011C841.217 130.004 860.021 148.802 860.021 171.998L846.021 172.002C846.021 156.538 833.485 144.006 818.021 144.011L758 144.03V130.03ZM860.021 171.998C860.021 195.194 841.217 214.004 818.021 214.011L758 214.03V200.03L818.021 200.011C833.485 200.006 846.021 187.466 846.021 172.002L860.021 171.998Z" fill="black"/>
<path d="M793.587 207.095C808.727 207.09 821 219.359 821 234.499V234.499C821 249.639 808.727 261.916 793.587 261.921L725.001 261.942V207.116L793.587 207.095Z" fill="#FFFEFA"/>
<path d="M793.587 200.095C812.593 200.089 828 215.491 828 234.497C828 253.503 812.593 268.915 793.587 268.921V254.921C804.861 254.917 814 245.775 814 234.501C814 223.227 804.861 214.091 793.587 214.095V200.095ZM793.587 214.095M725.001 261.942V207.116V261.942M725.001 200.116L793.587 200.095C812.593 200.089 828 215.491 828 234.497L814 234.501C814 223.227 804.861 214.091 793.587 214.095L725.001 214.116V200.116ZM828 234.497C828 253.503 812.593 268.915 793.587 268.921L725.001 268.942V254.942L793.587 254.921C804.861 254.917 814 245.775 814 234.501L828 234.497Z" fill="black"/>
<path d="M765 332.085C741.804 332.094 723 313.298 723 290.102V179.133C723 155.937 741.804 137.125 765 137.116V137.116V332.085V332.085Z" fill="#FFFEFA"/>
<path d="M765 339.085C737.938 339.096 716 317.166 716 290.104V179.136C716 152.074 737.938 130.127 765 130.116V144.116C745.67 144.124 730 159.8 730 179.13V290.099C730 309.429 745.67 325.093 765 325.085V339.085ZM765 325.085M765 137.116V332.085V137.116M765 339.085C737.938 339.096 716 317.166 716 290.104L730 290.099C730 309.429 745.67 325.093 765 325.085V339.085ZM716 179.136C716 152.074 737.938 130.127 765 130.116V144.116C745.67 144.124 730 159.8 730 179.13L716 179.136Z" fill="black"/>
<path d="M765 199.999C768.866 199.998 772 203.134 772 207.004C772 210.874 768.866 214.012 765 214.013C761.134 214.015 758 210.878 758 207.009C758 203.139 761.134 200 765 199.999Z" fill="black"/>
<path d="M765 255.006C768.866 255.004 772 258.137 772 262.003C772 265.869 768.866 269.004 765 269.006C761.134 269.007 758 265.874 758 262.008C758 258.142 761.134 255.007 765 255.006Z" fill="black"/>
<path d="M949.406 320.947C962.842 334.844 984.815 335.029 998.483 321.361V321.361C1012.15 307.692 1012.34 285.347 998.903 271.45L968.498 240.003L919.001 289.501L949.406 320.947Z" fill="#FFFEFA"/>
<path d="M944.456 325.897C960.58 342.573 986.947 342.795 1003.35 326.393C1019.75 309.991 1019.98 283.176 1003.85 266.5L993.954 276.4C1004.7 287.517 1004.55 305.394 993.617 316.328C982.683 327.263 965.105 327.115 954.356 315.998L944.456 325.897ZM954.356 315.998M968.498 240.003L919.001 289.501L968.498 240.003M914.051 294.45L944.456 325.897C960.58 342.573 986.947 342.795 1003.35 326.393L993.617 316.328C982.683 327.263 965.105 327.115 954.356 315.998L923.95 284.551L914.051 294.45ZM1003.35 326.393C1019.75 309.991 1019.98 283.176 1003.85 266.5L973.448 235.054L963.548 244.953L993.954 276.4C1004.7 287.517 1004.55 305.394 993.617 316.328L1003.35 326.393Z" fill="black"/>
<path d="M880.589 296.575C880.264 315.902 895.67 331.57 915 331.57V331.57C934.33 331.57 950.264 315.902 950.589 296.575L951.326 252.839H881.326L880.589 296.575Z" fill="#FFFEFA"/>
<path d="M873.589 296.575C873.199 319.768 891.686 338.569 914.882 338.569C938.078 338.569 957.199 319.768 957.589 296.575H943.589C943.329 312.037 930.582 324.571 915.118 324.571C899.654 324.571 887.329 312.037 887.589 296.575H873.589ZM887.589 296.575M951.326 252.839H881.326H951.326M874.326 252.839L873.589 296.575C873.199 319.768 891.686 338.569 914.882 338.569L915.118 324.571C899.654 324.571 887.329 312.037 887.589 296.575L888.326 252.839H874.326ZM914.882 338.569C938.078 338.569 957.199 319.768 957.589 296.575L958.326 252.839H944.326L943.589 296.575C943.329 312.037 930.582 324.571 915.118 324.571L914.882 338.569Z" fill="black"/>
<path d="M1009.34 203.366C1009.86 166.713 980.561 137 943.905 137V137L942.962 204.039H1009.33L1009.34 203.366Z" fill="#FFFEFA"/>
<path d="M1016.34 203.366C1016.91 162.847 984.526 130.001 944.004 130.001L943.807 143.999C976.597 143.999 1002.8 170.579 1002.34 203.366H1016.34ZM1002.34 203.366M942.962 204.039H1009.33H942.962M1016.33 204.039L1016.34 203.366C1016.91 162.847 984.526 130.001 944.004 130.001L943.807 143.999C976.597 143.999 1002.8 170.579 1002.34 203.366L1002.33 204.039H1016.33ZM1002.33 204.039M943.905 137L942.962 204.039L943.905 137" fill="black"/>
<path d="M944.242 257.164H952.904C983.667 257.164 1008.97 232.228 1009.41 201.468V201.468H945.047L944.242 257.164Z" fill="#FFFEFA"/>
<path d="M944.141 264.163H952.803C987.432 264.163 1015.91 236.094 1016.41 201.468H1002.41C1002.02 228.362 979.902 250.165 953.005 250.165H944.343L944.141 264.163ZM944.343 250.165M1009.41 201.468H945.047H1009.41M1009.41 201.468M945.047 201.468L944.242 257.164L945.047 201.468M952.803 264.163C987.432 264.163 1015.91 236.094 1016.41 201.468H1002.41C1002.02 228.362 979.902 250.165 953.005 250.165L952.803 264.163Z" fill="black"/>
<path d="M948.199 137V137C912.024 137 882.204 166.322 881.595 202.493L881.259 222.399H946.761L948.199 137Z" fill="#FFFEFA"/>
<path d="M948.317 130.001C908.275 130.001 875.269 162.457 874.595 202.493H888.595C889.138 170.187 915.772 143.999 948.081 143.999L948.317 130.001ZM948.081 143.999M881.259 222.399H946.761H881.259M881.259 222.399M946.761 222.399L948.199 137L946.761 222.399M948.317 130.001C908.275 130.001 875.269 162.457 874.595 202.493L874.259 222.399H888.259L888.595 202.493C889.138 170.187 915.772 143.999 948.081 143.999L948.317 130.001Z" fill="black"/>
<path d="M944.277 192C945.934 192 947.277 193.343 947.277 195V208H941.277V195L941.281 194.846C941.362 193.261 942.672 192 944.277 192Z" stroke="black" stroke-width="10"/>
<path d="M881 220.875V286.921L978 287.791V221.745L881 220.875Z" fill="#FFFEFA"/>
<path d="M881 220.875L888 220.938V286.983L881 286.921L874 286.858V220.812L881 220.875Z" fill="black"/>
<path d="M988.184 251.489C988.139 256.642 984.938 260.793 981.035 260.76C977.131 260.727 974.004 256.523 974.05 251.37C974.096 246.217 977.297 242.066 981.2 242.099C985.103 242.132 988.23 246.336 988.184 251.489Z" fill="black"/>
<path d="M957.197 288.128C957.163 291.998 953.971 295.109 950.068 295.076C946.165 295.043 943.029 291.879 943.063 288.008C943.097 284.138 946.289 281.027 950.192 281.06C954.095 281.093 957.232 284.257 957.197 288.128Z" fill="black"/>
</svg>
