<svg width="749" height="335" viewBox="0 0 749 335" fill="none" xmlns="http://www.w3.org/2000/svg">
<path d="M7 68C7 34.3106 34.3106 7 68 7V7C101.689 7 129 34.3106 129 68V144H7V68Z" fill="#FFFEFA"/>
<path d="M0 68C0 30.4446 30.4446 0 68 0C105.555 0 136 30.4446 136 68H122C122 38.1766 97.8234 14 68 14C38.1766 14 14 38.1766 14 68H0ZM14 68M129 144H7H129M0 144V68C0 30.4446 30.4446 0 68 0V14C38.1766 14 14 38.1766 14 68V144H0ZM68 0C105.555 0 136 30.4446 136 68V144H122V68C122 38.1766 97.8234 14 68 14V0Z" fill="black"/>
<path d="M99 281C99 306.405 78.4051 327 53 327V327C27.5949 327 7 306.405 7 281V190H99V281Z" fill="#FFFEFA"/>
<path d="M106 281C106 310.271 82.2711 334 53 334C23.7289 334 0 310.271 0 281H14C14 302.539 31.4609 320 53 320C74.5391 320 92 302.539 92 281H106ZM92 281M7 190H99H7M106 190V281C106 310.271 82.2711 334 53 334V320C74.5391 320 92 302.539 92 281V190H106ZM53 334C23.7289 334 0 310.271 0 281V190H14V281C14 302.539 31.4609 320 53 320V334Z" fill="black"/>
<path d="M251 281C251 306.405 230.405 327 205 327V327C179.595 327 159 306.405 159 281V190H251V281Z" fill="#FFFEFA"/>
<path d="M258 281C258 310.271 234.271 334 205 334C175.729 334 152 310.271 152 281H166C166 302.539 183.461 320 205 320C226.539 320 244 302.539 244 281H258ZM244 281M159 190H251H159M258 190V281C258 310.271 234.271 334 205 334V320C226.539 320 244 302.539 244 281V190H258ZM205 334C175.729 334 152 310.271 152 281V190H166V281C166 302.539 183.461 320 205 320V334Z" fill="black"/>
<path d="M169 288.5C169 309.763 151.763 327 130.5 327V327C109.237 327 92 309.763 92 288.5V190H169V288.5Z" fill="#FFFEFA"/>
<path d="M176 288.5C176 313.629 155.629 334 130.5 334C105.371 334 85 313.629 85 288.5H99C99 305.897 113.103 320 130.5 320C147.897 320 162 305.897 162 288.5H176ZM162 288.5M92 190H169H92M176 190V288.5C176 313.629 155.629 334 130.5 334V320C147.897 320 162 305.897 162 288.5V190H176ZM130.5 334C105.371 334 85 313.629 85 288.5V190H99V288.5C99 305.897 113.103 320 130.5 320V334Z" fill="black"/>
<path d="M129 68C129 34.3106 156.311 7 190 7V7C223.689 7 251 34.3106 251 68V144H129V68Z" fill="#FFFEFA"/>
<path d="M122 68C122 30.4446 152.445 0 190 0C227.555 0 258 30.4446 258 68H244C244 38.1766 219.823 14 190 14C160.177 14 136 38.1766 136 68H122ZM136 68M251 144H129H251M122 144V68C122 30.4446 152.445 0 190 0V14C160.177 14 136 38.1766 136 68V144H122ZM190 0C227.555 0 258 30.4446 258 68V144H244V68C244 38.1766 219.823 14 190 14V0Z" fill="black"/>
<path d="M7 144H251V190H7V144Z" fill="#FFFEFA"/>
<path d="M251 144H244V190H251H258V144H251ZM7 190H14V144H7H0V190H7Z" fill="black"/>
<ellipse cx="92" cy="189.5" rx="7" ry="7.5" fill="black"/>
<ellipse cx="129" cy="143.5" rx="7" ry="7.5" fill="black"/>
<path d="M176 189.5C176 193.642 172.866 197 169 197C165.134 197 162 193.642 162 189.5C162 185.358 165.134 182 169 182C172.866 182 176 185.358 176 189.5Z" fill="black"/>
<path d="M344 292C344 311.33 328.33 327 309 327V327C289.67 327 274 311.33 274 292V246H344V292Z" fill="#FFFEFA"/>
<path d="M351 292C351 315.196 332.196 334 309 334C285.804 334 267 315.196 267 292H281C281 307.464 293.536 320 309 320C324.464 320 337 307.464 337 292H351ZM337 292M274 246H344H274M351 246V292C351 315.196 332.196 334 309 334V320C324.464 320 337 307.464 337 292V246H351ZM309 334C285.804 334 267 315.196 267 292V246H281V292C281 307.464 293.536 320 309 320V334Z" fill="black"/>
<path d="M414 292C414 311.33 398.33 327 379 327V327C359.67 327 344 311.33 344 292V246H414V292Z" fill="#FFFEFA"/>
<path d="M421 292C421 315.196 402.196 334 379 334C355.804 334 337 315.196 337 292H351C351 307.464 363.536 320 379 320C394.464 320 407 307.464 407 292H421ZM407 292M344 246H414H344M421 246V292C421 315.196 402.196 334 379 334V320C394.464 320 407 307.464 407 292V246H421ZM379 334C355.804 334 337 315.196 337 292V246H351V292C351 307.464 363.536 320 379 320V334Z" fill="black"/>
<path d="M274 209C274 170.34 305.34 139 344 139V139C382.66 139 414 170.34 414 209V247H274V209Z" fill="#FFFEFA"/>
<path d="M267 209C267 166.474 301.474 132 344 132C386.526 132 421 166.474 421 209H407C407 174.206 378.794 146 344 146C309.206 146 281 174.206 281 209H267ZM281 209M414 247H274H414M267 247V209C267 166.474 301.474 132 344 132V146C309.206 146 281 174.206 281 209V247H267ZM344 132C386.526 132 421 166.474 421 209V247H407V209C407 174.206 378.794 146 344 146V132Z" fill="black"/>
<path d="M351.064 247.095C351.029 251.016 347.837 254.168 343.933 254.136C340.03 254.103 336.894 250.897 336.929 246.975C336.964 243.054 340.156 239.902 344.059 239.935C347.962 239.968 351.098 243.173 351.064 247.095Z" fill="black"/>
<path d="M344 187C345.657 187 347 188.343 347 190V203H341V190L341.004 189.846C341.084 188.261 342.395 187 344 187Z" stroke="black" stroke-width="10"/>
<path d="M536 302C536 315.807 524.807 327 511 327V327C497.193 327 486 315.807 486 302V258H536V302Z" fill="#FFFEFA"/>
<path d="M543 302C543 319.673 528.673 334 511 334C493.327 334 479 319.673 479 302H493C493 311.941 501.059 320 511 320C520.941 320 529 311.941 529 302H543ZM529 302M486 258H536H486M543 258V302C543 319.673 528.673 334 511 334V320C520.941 320 529 311.941 529 302V258H543ZM511 334C493.327 334 479 319.673 479 302V258H493V302C493 311.941 501.059 320 511 320V334Z" fill="black"/>
<path d="M432 174C432 154.67 447.67 139 467 139H507V174H432V174Z" fill="#FFFEFA"/>
<path d="M425 174C425 150.804 443.804 132 467 132H514L500 146H467C451.536 146 439 158.536 439 174H425ZM439 174M507 174H432H507M425 174C425 150.804 443.804 132 467 132V146C451.536 146 439 158.536 439 174H425ZM514 132V174H500V146L514 132Z" fill="black"/>
<path d="M501 209H467C447.67 209 432 193.33 432 174V174H501V209Z" fill="#FFFEFA"/>
<path d="M501 216H467C443.804 216 425 197.196 425 174H439C439 189.464 451.536 202 467 202H501V216ZM501 202M432 174H501H432M432 174M501 174V209V174M467 216C443.804 216 425 197.196 425 174H439C439 189.464 451.536 202 467 202V216Z" fill="black"/>
<path d="M585 174C585 193.33 569.33 209 550 209H524V174H585V174Z" fill="#FFFEFA"/>
<path d="M592 174C592 197.196 573.196 216 550 216H524V202H550C565.464 202 578 189.464 578 174H592ZM578 174M524 174H585H524M592 174C592 197.196 573.196 216 550 216V202C565.464 202 578 189.464 578 174H592ZM578 174M524 209V174V209" fill="black"/>
<path d="M541 292C541 311.33 525.33 327 506 327V327C486.67 327 471 311.33 471 292V202H541V292Z" fill="#FFFEFA"/>
<path d="M548 292C548 315.196 529.196 334 506 334C482.804 334 464 315.196 464 292H478C478 307.464 490.536 320 506 320C521.464 320 534 307.464 534 292H548ZM534 292M471 202H541H471M548 202V292C548 315.196 529.196 334 506 334V320C521.464 320 534 307.464 534 292V202H548ZM506 334C482.804 334 464 315.196 464 292V202H478V292C478 307.464 490.536 320 506 320V334Z" fill="black"/>
<path d="M507 139H550C569.33 139 585 154.67 585 174V174H507V139Z" fill="#FFFEFA"/>
<path d="M500 132H550C573.196 132 592 150.804 592 174H578C578 158.536 565.464 146 550 146H514L500 132ZM514 146M585 174H507H585M500 174V132L514 146V174H500ZM550 132C573.196 132 592 150.804 592 174H578C578 158.536 565.464 146 550 146V132Z" fill="black"/>
<path d="M493 139H529V212H493V139Z" fill="#FFFEFA"/>
<path d="M493 139V146H529V139V132H493V139Z" fill="black"/>
<path d="M706.83 257.011C726.16 257.005 741.83 272.67 741.83 292V292C741.83 311.33 726.16 327.005 706.83 327.011L646 327.03V257.03L706.83 257.011Z" fill="#FFFEFA"/>
<path d="M706.83 250.011C730.026 250.004 748.83 268.802 748.83 291.998C748.83 315.194 730.026 334.004 706.83 334.011V320.011C722.294 320.006 734.83 307.466 734.83 292.002C734.83 276.538 722.294 264.006 706.83 264.011V250.011ZM706.83 264.011M646 327.03V257.03V327.03M646 250.03L706.83 250.011C730.026 250.004 748.83 268.802 748.83 291.998L734.83 292.002C734.83 276.538 722.294 264.006 706.83 264.011L646 264.03V250.03ZM748.83 291.998C748.83 315.194 730.026 334.004 706.83 334.011L646 334.03V320.03L706.83 320.011C722.294 320.006 734.83 307.466 734.83 292.002L748.83 291.998Z" fill="black"/>
<path d="M703.021 132.011C722.351 132.005 738.021 147.67 738.021 167V167C738.021 186.33 722.351 202.005 703.021 202.011L643 202.03V132.03L703.021 132.011Z" fill="#FFFEFA"/>
<path d="M703.021 125.011C726.217 125.004 745.021 143.802 745.021 166.998C745.021 190.194 726.217 209.004 703.021 209.011V195.011C718.485 195.006 731.021 182.466 731.021 167.002C731.021 151.538 718.485 139.006 703.021 139.011V125.011ZM703.021 139.011M643 202.03V132.03V202.03M643 125.03L703.021 125.011C726.217 125.004 745.021 143.802 745.021 166.998L731.021 167.002C731.021 151.538 718.485 139.006 703.021 139.011L643 139.03V125.03ZM745.021 166.998C745.021 190.194 726.217 209.004 703.021 209.011L643 209.03V195.03L703.021 195.011C718.485 195.006 731.021 182.466 731.021 167.002L745.021 166.998Z" fill="black"/>
<path d="M678.587 202.095C693.727 202.09 706 214.359 706 229.499V229.499C706 244.639 693.727 256.916 678.587 256.921L610.001 256.942V202.116L678.587 202.095Z" fill="#FFFEFA"/>
<path d="M678.587 195.095C697.593 195.089 713 210.491 713 229.497C713 248.503 697.593 263.915 678.587 263.921V249.921C689.861 249.917 699 240.775 699 229.501C699 218.227 689.861 209.091 678.587 209.095V195.095ZM678.587 209.095M610.001 256.942V202.116V256.942M610.001 195.116L678.587 195.095C697.593 195.089 713 210.491 713 229.497L699 229.501C699 218.227 689.861 209.091 678.587 209.095L610.001 209.116V195.116ZM713 229.497C713 248.503 697.593 263.915 678.587 263.921L610.001 263.942V249.942L678.587 249.921C689.861 249.917 699 240.775 699 229.501L713 229.497Z" fill="black"/>
<path d="M650 327.085C626.804 327.094 608 308.298 608 285.102V174.133C608 150.937 626.804 132.125 650 132.116V132.116V327.085V327.085Z" fill="#FFFEFA"/>
<path d="M650 334.085C622.938 334.096 601 312.166 601 285.104V174.136C601 147.074 622.938 125.127 650 125.116V139.116C630.67 139.124 615 154.8 615 174.13V285.099C615 304.429 630.67 320.093 650 320.085V334.085ZM650 320.085M650 132.116V327.085V132.116M650 334.085C622.938 334.096 601 312.166 601 285.104L615 285.099C615 304.429 630.67 320.093 650 320.085V334.085ZM601 174.136C601 147.074 622.938 125.127 650 125.116V139.116C630.67 139.124 615 154.8 615 174.13L601 174.136Z" fill="black"/>
<path d="M650 194.999C653.866 194.998 657 198.134 657 202.004C657 205.874 653.866 209.012 650 209.013C646.134 209.015 643 205.878 643 202.009C643 198.139 646.134 195 650 194.999Z" fill="black"/>
<path d="M650 250.006C653.866 250.004 657 253.137 657 257.003C657 260.869 653.866 264.004 650 264.006C646.134 264.007 643 260.874 643 257.008C643 253.142 646.134 250.007 650 250.006Z" fill="black"/>
</svg>
