<svg width="716" height="335" viewBox="0 0 716 335" fill="none" xmlns="http://www.w3.org/2000/svg">
<path d="M7 68C7 34.3106 34.3106 7 68 7V7C101.689 7 129 34.3106 129 68V144H7V68Z" fill="#FFFEFA"/>
<path d="M0 68C0 30.4446 30.4446 0 68 0C105.555 0 136 30.4446 136 68H122C122 38.1766 97.8234 14 68 14C38.1766 14 14 38.1766 14 68H0ZM14 68M129 144H7H129M0 144V68C0 30.4446 30.4446 0 68 0V14C38.1766 14 14 38.1766 14 68V144H0ZM68 0C105.555 0 136 30.4446 136 68V144H122V68C122 38.1766 97.8234 14 68 14V0Z" fill="black"/>
<path d="M99 281C99 306.405 78.4051 327 53 327V327C27.5949 327 7 306.405 7 281V190H99V281Z" fill="#FFFEFA"/>
<path d="M106 281C106 310.271 82.2711 334 53 334C23.7289 334 0 310.271 0 281H14C14 302.539 31.4609 320 53 320C74.5391 320 92 302.539 92 281H106ZM92 281M7 190H99H7M106 190V281C106 310.271 82.2711 334 53 334V320C74.5391 320 92 302.539 92 281V190H106ZM53 334C23.7289 334 0 310.271 0 281V190H14V281C14 302.539 31.4609 320 53 320V334Z" fill="black"/>
<path d="M251 281C251 306.405 230.405 327 205 327V327C179.595 327 159 306.405 159 281V190H251V281Z" fill="#FFFEFA"/>
<path d="M258 281C258 310.271 234.271 334 205 334C175.729 334 152 310.271 152 281H166C166 302.539 183.461 320 205 320C226.539 320 244 302.539 244 281H258ZM244 281M159 190H251H159M258 190V281C258 310.271 234.271 334 205 334V320C226.539 320 244 302.539 244 281V190H258ZM205 334C175.729 334 152 310.271 152 281V190H166V281C166 302.539 183.461 320 205 320V334Z" fill="black"/>
<path d="M169 288.5C169 309.763 151.763 327 130.5 327V327C109.237 327 92 309.763 92 288.5V190H169V288.5Z" fill="#FFFEFA"/>
<path d="M176 288.5C176 313.629 155.629 334 130.5 334C105.371 334 85 313.629 85 288.5H99C99 305.897 113.103 320 130.5 320C147.897 320 162 305.897 162 288.5H176ZM162 288.5M92 190H169H92M176 190V288.5C176 313.629 155.629 334 130.5 334V320C147.897 320 162 305.897 162 288.5V190H176ZM130.5 334C105.371 334 85 313.629 85 288.5V190H99V288.5C99 305.897 113.103 320 130.5 320V334Z" fill="black"/>
<path d="M129 68C129 34.3106 156.311 7 190 7V7C223.689 7 251 34.3106 251 68V144H129V68Z" fill="#FFFEFA"/>
<path d="M122 68C122 30.4446 152.445 0 190 0C227.555 0 258 30.4446 258 68H244C244 38.1766 219.823 14 190 14C160.177 14 136 38.1766 136 68H122ZM136 68M251 144H129H251M122 144V68C122 30.4446 152.445 0 190 0V14C160.177 14 136 38.1766 136 68V144H122ZM190 0C227.555 0 258 30.4446 258 68V144H244V68C244 38.1766 219.823 14 190 14V0Z" fill="black"/>
<path d="M7 144H251V190H7V144Z" fill="#FFFEFA"/>
<path d="M251 144H244V190H251H258V144H251ZM7 190H14V144H7H0V190H7Z" fill="black"/>
<ellipse cx="92" cy="189.5" rx="7" ry="7.5" fill="black"/>
<ellipse cx="129" cy="143.5" rx="7" ry="7.5" fill="black"/>
<path d="M176 189.5C176 193.642 172.866 197 169 197C165.134 197 162 193.642 162 189.5C162 185.358 165.134 182 169 182C172.866 182 176 185.358 176 189.5Z" fill="black"/>
<path d="M372.83 257.011C392.16 257.005 407.83 272.67 407.83 292V292C407.83 311.33 392.16 327.005 372.83 327.011L312 327.03V257.03L372.83 257.011Z" fill="#FFFEFA"/>
<path d="M372.83 250.011C396.026 250.004 414.83 268.802 414.83 291.998C414.83 315.194 396.026 334.004 372.83 334.011V320.011C388.294 320.006 400.83 307.466 400.83 292.002C400.83 276.538 388.294 264.006 372.83 264.011V250.011ZM372.83 264.011M312 327.03V257.03V327.03M312 250.03L372.83 250.011C396.026 250.004 414.83 268.802 414.83 291.998L400.83 292.002C400.83 276.538 388.294 264.006 372.83 264.011L312 264.03V250.03ZM414.83 291.998C414.83 315.194 396.026 334.004 372.83 334.011L312 334.03V320.03L372.83 320.011C388.294 320.006 400.83 307.466 400.83 292.002L414.83 291.998Z" fill="black"/>
<path d="M369.021 132.011C388.351 132.005 404.021 147.67 404.021 167V167C404.021 186.33 388.351 202.005 369.021 202.011L309 202.03V132.03L369.021 132.011Z" fill="#FFFEFA"/>
<path d="M369.021 125.011C392.217 125.004 411.021 143.802 411.021 166.998C411.021 190.194 392.217 209.004 369.021 209.011V195.011C384.485 195.006 397.021 182.466 397.021 167.002C397.021 151.538 384.485 139.006 369.021 139.011V125.011ZM369.021 139.011M309 202.03V132.03V202.03M309 125.03L369.021 125.011C392.217 125.004 411.021 143.802 411.021 166.998L397.021 167.002C397.021 151.538 384.485 139.006 369.021 139.011L309 139.03V125.03ZM411.021 166.998C411.021 190.194 392.217 209.004 369.021 209.011L309 209.03V195.03L369.021 195.011C384.485 195.006 397.021 182.466 397.021 167.002L411.021 166.998Z" fill="black"/>
<path d="M344.587 202.095C359.727 202.09 372 214.359 372 229.499V229.499C372 244.639 359.727 256.916 344.587 256.921L276.001 256.942V202.116L344.587 202.095Z" fill="#FFFEFA"/>
<path d="M344.587 195.095C363.593 195.089 379 210.491 379 229.497C379 248.503 363.593 263.915 344.587 263.921V249.921C355.861 249.917 365 240.775 365 229.501C365 218.227 355.861 209.091 344.587 209.095V195.095ZM344.587 209.095M276.001 256.942V202.116V256.942M276.001 195.116L344.587 195.095C363.593 195.089 379 210.491 379 229.497L365 229.501C365 218.227 355.861 209.091 344.587 209.095L276.001 209.116V195.116ZM379 229.497C379 248.503 363.593 263.915 344.587 263.921L276.001 263.942V249.942L344.587 249.921C355.861 249.917 365 240.775 365 229.501L379 229.497Z" fill="black"/>
<path d="M316 327.085C292.804 327.094 274 308.298 274 285.102V174.133C274 150.937 292.804 132.125 316 132.116V132.116V327.085V327.085Z" fill="#FFFEFA"/>
<path d="M316 334.085C288.938 334.096 267 312.166 267 285.104V174.136C267 147.074 288.938 125.127 316 125.116V139.116C296.67 139.124 281 154.8 281 174.13V285.099C281 304.429 296.67 320.093 316 320.085V334.085ZM316 320.085M316 132.116V327.085V132.116M316 334.085C288.938 334.096 267 312.166 267 285.104L281 285.099C281 304.429 296.67 320.093 316 320.085V334.085ZM267 174.136C267 147.074 288.938 125.127 316 125.116V139.116C296.67 139.124 281 154.8 281 174.13L267 174.136Z" fill="black"/>
<path d="M316 194.999C319.866 194.998 323 198.134 323 202.004C323 205.874 319.866 209.012 316 209.013C312.134 209.015 309 205.878 309 202.009C309 198.139 312.134 195 316 194.999Z" fill="black"/>
<path d="M316 250.006C319.866 250.004 323 253.137 323 257.003C323 260.869 319.866 264.004 316 264.006C312.134 264.007 309 260.874 309 257.008C309 253.142 312.134 250.007 316 250.006Z" fill="black"/>
<path d="M501 285C501 304.33 485.33 320 466 320V320C446.67 320 431 304.33 431 285V239H501V285Z" fill="#FFFEFA"/>
<path d="M508 285C508 308.196 489.196 327 466 327C442.804 327 424 308.196 424 285H438C438 300.464 450.536 313 466 313C481.464 313 494 300.464 494 285H508ZM494 285M431 239H501H431M508 239V285C508 308.196 489.196 327 466 327V313C481.464 313 494 300.464 494 285V239H508ZM466 327C442.804 327 424 308.196 424 285V239H438V285C438 300.464 450.536 313 466 313V327Z" fill="black"/>
<path d="M571 285C571 304.33 555.33 320 536 320V320C516.67 320 501 304.33 501 285V239H571V285Z" fill="#FFFEFA"/>
<path d="M578 285C578 308.196 559.196 327 536 327C512.804 327 494 308.196 494 285H508C508 300.464 520.536 313 536 313C551.464 313 564 300.464 564 285H578ZM564 285M501 239H571H501M578 239V285C578 308.196 559.196 327 536 327V313C551.464 313 564 300.464 564 285V239H578ZM536 327C512.804 327 494 308.196 494 285V239H508V285C508 300.464 520.536 313 536 313V327Z" fill="black"/>
<path d="M431 202C431 163.34 462.34 132 501 132V132C539.66 132 571 163.34 571 202V240H431V202Z" fill="#FFFEFA"/>
<path d="M424 202C424 159.474 458.474 125 501 125C543.526 125 578 159.474 578 202H564C564 167.206 535.794 139 501 139C466.206 139 438 167.206 438 202H424ZM438 202M571 240H431H571M424 240V202C424 159.474 458.474 125 501 125V139C466.206 139 438 167.206 438 202V240H424ZM501 125C543.526 125 578 159.474 578 202V240H564V202C564 167.206 535.794 139 501 139V125Z" fill="black"/>
<path d="M508.064 240.095C508.029 244.016 504.837 247.168 500.933 247.136C497.03 247.103 493.894 243.897 493.929 239.975C493.964 236.054 497.156 232.902 501.059 232.935C504.962 232.968 508.098 236.173 508.064 240.095Z" fill="black"/>
<path d="M501 180C502.657 180 504 181.343 504 183V196H498V183L498.004 182.846C498.084 181.261 499.395 180 501 180Z" stroke="black" stroke-width="10"/>
<path d="M708.512 284.859C708.511 304.47 692.612 320.367 673.002 320.367H664L664.001 284.859H708.512V284.859Z" fill="#FFFEFA"/>
<path d="M715.512 284.859C715.51 308.336 696.478 327.367 673.002 327.367H663.999L664 313.367H673.002C688.747 313.367 701.511 300.604 701.512 284.859H715.512ZM701.512 284.859M664.001 284.859H708.512H664.001M715.512 284.859C715.51 308.336 696.478 327.367 673.002 327.367L673.002 313.367C688.747 313.367 701.511 300.604 701.512 284.859H715.512ZM701.512 284.859M664 320.367L664.001 284.859L664 320.367" fill="black"/>
<path d="M664 249.859H673.523C692.853 249.859 708.523 265.529 708.522 284.859V284.859H663.998L664 249.859Z" fill="#FFFEFA"/>
<path d="M664 242.859H673.524C696.72 242.859 715.523 261.663 715.522 284.859H701.522C701.523 269.395 688.987 256.859 673.523 256.859H664L664 242.859ZM664 256.859M708.522 284.859H663.998H708.522M708.522 284.859M663.998 284.859L664 249.859L663.998 284.859M673.524 242.859C696.72 242.859 715.523 261.663 715.522 284.859H701.522C701.523 269.395 688.987 256.859 673.523 256.859L673.524 242.859Z" fill="black"/>
<path d="M664.006 320.367H659.449C623.306 320.367 594.007 291.067 594.009 254.924V254.924L664.009 254.924L664.006 320.367Z" fill="#FFFEFA"/>
<path d="M664.006 327.367H659.449C619.439 327.367 587.007 294.933 587.009 254.924H601.009C601.007 287.201 627.172 313.367 659.45 313.367H664.006L664.006 327.367ZM664.006 313.367M594.009 254.924L664.009 254.924L594.009 254.924M594.009 254.924M664.009 254.924L664.006 320.367L664.009 254.924M659.449 327.367C619.439 327.367 587.007 294.933 587.009 254.924H601.009C601.007 287.201 627.172 313.367 659.45 313.367L659.449 327.367Z" fill="black"/>
<path d="M594.008 165.157C594.009 145.74 609.75 130 629.167 130V130C648.583 130 664.323 145.74 664.322 165.157L664.317 256.857H594.004L594.008 165.157Z" fill="#FFFEFA"/>
<path d="M587.008 165.157C587.009 141.874 605.884 123 629.167 123C652.449 123 671.323 141.874 671.322 165.157H657.322C657.322 149.606 644.717 137 629.166 137C613.616 137 601.009 149.606 601.008 165.157H587.008ZM601.008 165.157M664.317 256.857H594.004H664.317M587.004 256.857L587.008 165.157C587.009 141.874 605.884 123 629.167 123L629.166 137C613.616 137 601.009 149.606 601.008 165.157L601.004 256.857H587.004ZM629.167 123C652.449 123 671.323 141.874 671.322 165.157L671.317 256.857H657.317L657.322 165.157C657.322 149.606 644.717 137 629.166 137L629.167 123Z" fill="black"/>
</svg>
