<svg width="445" height="334" viewBox="0 0 445 334" fill="none" xmlns="http://www.w3.org/2000/svg">
<path d="M7 68C7 34.3106 34.3106 7 68 7V7C101.689 7 129 34.3106 129 68V144H7V68Z" fill="#FFFEFA"/>
<path d="M0 68C0 30.4446 30.4446 0 68 0C105.555 0 136 30.4446 136 68H122C122 38.1766 97.8234 14 68 14C38.1766 14 14 38.1766 14 68H0ZM14 68M129 144H7H129M0 144V68C0 30.4446 30.4446 0 68 0V14C38.1766 14 14 38.1766 14 68V144H0ZM68 0C105.555 0 136 30.4446 136 68V144H122V68C122 38.1766 97.8234 14 68 14V0Z" fill="black"/>
<path d="M99 281C99 306.405 78.4051 327 53 327V327C27.5949 327 7 306.405 7 281V190H99V281Z" fill="#FFFEFA"/>
<path d="M106 281C106 310.271 82.2711 334 53 334C23.7289 334 0 310.271 0 281H14C14 302.539 31.4609 320 53 320C74.5391 320 92 302.539 92 281H106ZM92 281M7 190H99H7M106 190V281C106 310.271 82.2711 334 53 334V320C74.5391 320 92 302.539 92 281V190H106ZM53 334C23.7289 334 0 310.271 0 281V190H14V281C14 302.539 31.4609 320 53 320V334Z" fill="black"/>
<path d="M251 281C251 306.405 230.405 327 205 327V327C179.595 327 159 306.405 159 281V190H251V281Z" fill="#FFFEFA"/>
<path d="M258 281C258 310.271 234.271 334 205 334C175.729 334 152 310.271 152 281H166C166 302.539 183.461 320 205 320C226.539 320 244 302.539 244 281H258ZM244 281M159 190H251H159M258 190V281C258 310.271 234.271 334 205 334V320C226.539 320 244 302.539 244 281V190H258ZM205 334C175.729 334 152 310.271 152 281V190H166V281C166 302.539 183.461 320 205 320V334Z" fill="black"/>
<path d="M169 288.5C169 309.763 151.763 327 130.5 327V327C109.237 327 92 309.763 92 288.5V190H169V288.5Z" fill="#FFFEFA"/>
<path d="M176 288.5C176 313.629 155.629 334 130.5 334C105.371 334 85 313.629 85 288.5H99C99 305.897 113.103 320 130.5 320C147.897 320 162 305.897 162 288.5H176ZM162 288.5M92 190H169H92M176 190V288.5C176 313.629 155.629 334 130.5 334V320C147.897 320 162 305.897 162 288.5V190H176ZM130.5 334C105.371 334 85 313.629 85 288.5V190H99V288.5C99 305.897 113.103 320 130.5 320V334Z" fill="black"/>
<path d="M129 68C129 34.3106 156.311 7 190 7V7C223.689 7 251 34.3106 251 68V144H129V68Z" fill="#FFFEFA"/>
<path d="M122 68C122 30.4446 152.445 0 190 0C227.555 0 258 30.4446 258 68H244C244 38.1766 219.823 14 190 14C160.177 14 136 38.1766 136 68H122ZM136 68M251 144H129H251M122 144V68C122 30.4446 152.445 0 190 0V14C160.177 14 136 38.1766 136 68V144H122ZM190 0C227.555 0 258 30.4446 258 68V144H244V68C244 38.1766 219.823 14 190 14V0Z" fill="black"/>
<path d="M7 144H251V190H7V144Z" fill="#FFFEFA"/>
<path d="M251 144H244V190H251H258V144H251ZM7 190H14V144H7H0V190H7Z" fill="black"/>
<ellipse cx="92" cy="189.5" rx="7" ry="7.5" fill="black"/>
<ellipse cx="129" cy="143.5" rx="7" ry="7.5" fill="black"/>
<path d="M176 189.5C176 193.642 172.866 197 169 197C165.134 197 162 193.642 162 189.5C162 185.358 165.134 182 169 182C172.866 182 176 185.358 176 189.5Z" fill="black"/>
<path d="M438 193C438 221.167 415.167 244 387 244H375V193H438V193Z" fill="#FFFEFA"/>
<path d="M445 193C445 225.033 419.033 251 387 251H375V237H387C411.301 237 431 217.301 431 193H445ZM431 193M375 193H438H375M445 193C445 225.033 419.033 251 387 251V237C411.301 237 431 217.301 431 193H445ZM431 193M375 244V193V244" fill="black"/>
<path d="M337 244H324C296.386 244 274 221.614 274 194V194H337V244Z" fill="#FFFEFA"/>
<path d="M337 251H324C292.52 251 267 225.48 267 194H281C281 217.748 300.252 237 324 237H337V251ZM337 237M274 194H337H274M274 194M337 194V244V194M324 251C292.52 251 267 225.48 267 194H281C281 217.748 300.252 237 324 237V251Z" fill="black"/>
<path d="M391 292C391 311.33 375.33 327 356 327V327C336.67 327 321 311.33 321 292V236H391V292Z" fill="#FFFEFA"/>
<path d="M398 292C398 315.196 379.196 334 356 334C332.804 334 314 315.196 314 292H328C328 307.464 340.536 320 356 320C371.464 320 384 307.464 384 292H398ZM384 292M321 236H391H321M398 236V292C398 315.196 379.196 334 356 334V320C371.464 320 384 307.464 384 292V236H398ZM356 334C332.804 334 314 315.196 314 292V236H328V292C328 307.464 340.536 320 356 320V334Z" fill="black"/>
<path d="M337 200H375V236H337V200Z" fill="#FFFEFA"/>
<path d="M337 200V207H375V200V193H337V200Z" fill="black"/>
<path d="M274 173C274 153.67 289.67 138 309 138V138C328.33 138 344 153.67 344 173V194H274V173Z" fill="#FFFEFA"/>
<path d="M267 173C267 149.804 285.804 131 309 131C332.196 131 351 149.804 351 173H337C337 157.536 324.464 145 309 145C293.536 145 281 157.536 281 173H267ZM281 173M344 194H274H344M267 194V173C267 149.804 285.804 131 309 131V145C293.536 145 281 157.536 281 173V194H267ZM309 131C332.196 131 351 149.804 351 173V194H337V173C337 157.536 324.464 145 309 145V131Z" fill="black"/>
<path d="M368 173C368 153.67 383.67 138 403 138V138C422.33 138 438 153.67 438 173V193H368V173Z" fill="#FFFEFA"/>
<path d="M361 173C361 149.804 379.804 131 403 131C426.196 131 445 149.804 445 173H431C431 157.536 418.464 145 403 145C387.536 145 375 157.536 375 173H361ZM375 173M438 193H368H438M361 193V173C361 149.804 379.804 131 403 131V145C387.536 145 375 157.536 375 173V193H361ZM403 131C426.196 131 445 149.804 445 173V193H431V173C431 157.536 418.464 145 403 145V131Z" fill="black"/>
</svg>
