<svg width="166" height="168" viewBox="0 0 166 168" fill="none" xmlns="http://www.w3.org/2000/svg">
<path d="M83 4C126.585 4 162 39.7719 162 84C162 128.228 126.585 164 83 164C39.4145 164 4 128.228 4 84C4 39.7719 39.4145 4 83 4Z" stroke="black" stroke-width="8"/>
<path d="M124.432 54.146H124.45C125.925 54.7373 127.187 55.7469 128.076 57.046C128.964 58.3452 129.438 59.8749 129.438 61.44V126.89C129.439 128.024 129.151 129.14 128.6 130.136C128.049 131.132 127.252 131.977 126.282 132.591C125.312 133.206 124.201 133.572 123.05 133.655C121.899 133.738 120.745 133.536 119.694 133.067L119.687 133.085L91.7997 120.628C87.9172 118.903 83.7061 118.007 79.4449 118H60.3499C56.1527 117.993 52.0128 117.043 48.2464 115.223C44.4801 113.403 41.187 110.761 38.6187 107.5H29.4738C27.6408 107.5 25.8829 106.785 24.5868 105.511C23.2906 104.238 22.5625 102.511 22.5625 100.71V79.29C22.5625 77.4892 23.2906 75.7621 24.5868 74.4887C25.8829 73.2154 27.6408 72.5 29.4738 72.5C33.3383 72.5025 37.143 71.562 40.5461 69.7629C43.9493 67.9638 46.8443 65.3625 48.9713 62.1925L53.0326 56.2075C56.1228 51.6294 60.2987 47.8572 65.2011 45.2155C70.1036 42.5738 75.5858 41.1416 81.1763 41.042C83.5291 37.7849 86.6412 35.1283 90.2526 33.2943C93.864 31.4603 97.8697 30.5022 101.935 30.5H107.172C108.644 30.5023 110.093 30.8548 111.396 31.5275C112.698 32.2002 113.816 33.1729 114.652 34.3625C115.489 35.5522 116.02 36.9232 116.199 38.3583C116.378 39.7934 116.201 41.2498 115.683 42.603V42.6555L115.608 42.848L115.337 43.548L114.429 45.9385C114.023 47.013 113.574 48.1785 113.146 49.2985L113.05 49.54L124.432 54.146ZM36.9871 96.034C38.0451 94.193 38.6009 92.114 38.5938 90C38.5946 87.8264 38.0034 85.6921 36.8814 83.8187C35.7595 81.9453 34.1477 80.401 32.2133 79.346L32.0209 79.3635C31.2479 79.43 30.4713 79.5 29.6875 79.5V100.5H32.5553C34.4007 99.415 35.929 97.875 36.9871 96.034ZM94.753 114.255L122.313 126.564V61.44C122.319 61.2617 122.27 61.0857 122.172 60.9356C122.074 60.7855 121.932 60.6684 121.764 60.6L108.162 55.105V55.084C107.038 54.6386 106.136 53.7777 105.65 52.6861C105.164 51.5945 105.134 50.3594 105.565 49.246L105.551 49.239L105.743 48.749L105.872 48.413C104.239 52.4177 101.424 55.8513 97.79 58.2724C94.1556 60.6936 89.8674 61.9917 85.4763 62H85.0488C84.8148 61.9994 84.5844 61.9432 84.3773 61.8361C84.1702 61.7291 83.9926 61.5744 83.8596 61.3852C83.7266 61.1961 83.6421 60.9781 83.6135 60.75C83.5848 60.5218 83.6128 60.2902 83.695 60.075L86.9013 51.675C88.0977 48.5398 90.2395 45.838 93.0405 43.9305C95.8414 42.023 99.1682 41.0006 102.576 41H106.638C106.862 40.9979 107.083 41.0478 107.284 41.1457C107.485 41.2436 107.66 41.3867 107.794 41.5634C107.928 41.7401 108.017 41.9453 108.055 42.1625C108.093 42.3796 108.079 42.6025 108.013 42.813C108.237 42.211 108.451 41.6545 108.618 41.217L108.675 41.063L108.946 40.363L109.021 40.1705L109.039 40.118C109.148 39.8232 109.184 39.5069 109.142 39.1957C109.1 38.8846 108.983 38.588 108.8 38.331C108.617 38.074 108.373 37.8642 108.089 37.7195C107.806 37.5749 107.491 37.4996 107.172 37.5H101.935C98.9145 37.5013 95.9406 38.2323 93.2755 39.6288C90.6103 41.0253 88.3357 43.0443 86.6519 45.508L86.6305 45.5395L86.6056 45.5745C86.0687 46.3253 85.3554 46.9378 84.5262 47.3601C83.6971 47.7823 82.7764 48.0018 81.8425 48C77.3078 47.9949 72.8427 49.0957 68.8478 51.2038C64.8529 53.3119 61.4531 56.3613 58.9534 60.0785L58.9428 60.1065L54.8886 66.0775C50.7243 72.2539 44.3784 76.6955 37.0761 78.5445C40.1364 81.3472 41.9541 85.2184 42.138 89.3247C42.3219 93.431 40.8572 97.4441 38.0594 100.5H42.2774L43.3354 102.054C45.2061 104.805 47.7383 107.061 50.7079 108.621C53.6776 110.182 56.993 110.999 60.3606 111H79.4556C84.7281 111.01 89.9436 112.127 94.7459 114.269L94.753 114.255Z" fill="black"/>
<line x1="68.3198" y1="78.9199" x2="68.3198" y2="79.7999" stroke="black" stroke-width="12" stroke-linecap="round"/>
<line x1="35.1099" y1="86.5605" x2="35.1099" y2="93.4405" stroke="black" stroke-width="6" stroke-linecap="round"/>
<line x1="30.6557" y1="29.8846" x2="49.8846" y2="48.3443" stroke="black" stroke-width="8" stroke-linecap="round"/>
<line x1="138.345" y1="139.162" x2="126.162" y2="127.655" stroke="black" stroke-width="8" stroke-linecap="round"/>
</svg>
