<svg width="200" height="200" viewBox="0 0 200 200" fill="none" xmlns="http://www.w3.org/2000/svg">
<path d="M58.8084 51.6082C59.2989 51.3654 59.8325 51.2216 60.3786 51.1851C60.9247 51.1485 61.4726 51.22 61.9911 51.3952C62.5096 51.5705 62.9885 51.8462 63.4004 52.2066C63.8123 52.567 64.1492 53.005 64.3917 53.4957L67.6876 60.179L74.4084 52.9707C75.1616 52.1625 76.205 51.6866 77.309 51.6476C78.4131 51.6085 79.4874 52.0095 80.2959 52.7623C81.9751 54.3373 82.0667 56.9748 80.5001 58.6582L71.6334 68.1707L74.9792 74.9457L80.5251 69.8915C80.9299 69.5231 81.4034 69.2381 81.9184 69.0528C82.4334 68.8674 82.9799 68.7854 83.5267 68.8113C84.0734 68.8372 84.6097 68.9706 85.1049 69.2039C85.6 69.4371 86.0444 69.7656 86.4126 70.1707C86.7822 70.5757 87.0683 71.0497 87.2544 71.5655C87.4405 72.0813 87.5229 72.6288 87.497 73.1765C87.471 73.7243 87.3372 74.2615 87.1032 74.7574C86.8692 75.2534 86.5397 75.6982 86.1334 76.0665L78.8209 82.7248L83.2209 91.6373C83.7116 92.628 83.7886 93.7731 83.435 94.8205C83.0814 95.868 82.3262 96.7321 81.3355 97.2227C80.3448 97.7134 79.1998 97.7904 78.1523 97.4368C77.1048 97.0832 76.2407 96.328 75.7501 95.3373L71.1876 86.0915L63.0042 87.7498C61.9196 87.9692 60.7923 87.7487 59.8702 87.1369C58.9482 86.525 58.3069 85.572 58.0876 84.4873C57.8682 83.4027 58.0887 82.2754 58.7005 81.3533C59.3124 80.4313 60.2654 79.79 61.3501 79.5707L67.3667 78.354L64.0542 71.6457L51.3876 73.554C50.2936 73.7181 49.1792 73.4409 48.2895 72.7833C47.3999 72.1258 46.8079 71.1418 46.6438 70.0478C46.4797 68.9537 46.7569 67.8393 47.4145 66.9497C48.072 66.0601 49.0561 65.4681 50.1501 65.304L60.1751 63.7915L56.9209 57.1957C56.6775 56.7049 56.5332 56.171 56.4963 55.6245C56.4594 55.0779 56.5307 54.5295 56.706 54.0105C56.8813 53.4915 57.1573 53.0122 57.518 52.6C57.8788 52.1878 58.3173 51.8507 58.8084 51.6082ZM152.975 88.5373C153.52 88.4808 154.07 88.5321 154.594 88.6883C155.119 88.8445 155.608 89.1026 156.033 89.4477C156.458 89.7929 156.81 90.2184 157.071 90.6999C157.331 91.1814 157.494 91.7095 157.55 92.254C158.383 100.2 154.883 107.712 148.271 112.187C147.354 112.756 146.252 112.947 145.196 112.721C144.141 112.495 143.214 111.868 142.611 110.974C142.007 110.079 141.773 108.985 141.958 107.922C142.144 106.859 142.734 105.908 143.604 105.271C145.575 103.964 147.147 102.137 148.146 99.993C149.144 97.8489 149.531 95.4706 149.263 93.1207C149.205 92.5759 149.255 92.025 149.411 91.4997C149.566 90.9743 149.823 90.4848 150.168 90.0591C150.513 89.6333 150.939 89.2798 151.42 89.0187C151.902 88.7576 152.43 88.594 152.975 88.5373Z" fill="#212842"/>
<path fill-rule="evenodd" clip-rule="evenodd" d="M42.1208 174.996C54.4708 174.371 62.1833 170.938 66.975 165.863C68.65 168.254 71.5583 169.654 74.7125 169.163C91.2708 166.579 128.171 159.779 169.642 145.438C171.2 144.945 172.561 143.968 173.527 142.649C174.492 141.331 175.013 139.739 175.013 138.104C175.013 136.47 174.492 134.878 173.527 133.559C172.561 132.241 171.2 131.264 169.642 130.771C164.939 129.149 160.304 127.62 155.737 126.184C164.008 121.821 170.354 114.5 172.837 105.209C178.442 84.271 163.733 66.0544 144.646 71.8502C143.3 62.2419 146.417 53.3919 154.596 48.6627L150.429 41.4377C140.312 47.2835 136.062 57.2877 136.025 67.5335C128.854 62.046 120.162 61.8377 112.775 65.7002C112.744 64.463 112.568 63.2338 112.25 62.0377C110.979 57.2835 107.583 53.8877 102.917 51.9335C101.958 47.5335 99.75 42.1919 95.5791 38.2085C90.7458 33.6002 83.8041 31.3085 74.7583 33.5335C72.5344 30.493 69.5478 28.0928 66.1 26.5752C60.5375 24.1794 53.55 24.2294 45.6667 28.7669C37.4292 32.621 33.4583 38.2919 32.3625 44.2377C31.6208 48.2794 32.2667 52.1127 33.3292 55.1377C26.3375 61.2669 24.2333 68.2668 25.2375 74.8627C26.1083 80.5669 29.2167 85.4419 32.2667 88.7502C31.1917 93.696 32.0292 98.421 35.1917 102.192C36.0083 103.161 36.9389 104.027 37.9833 104.788C37.9646 104.956 37.9563 105.126 37.9583 105.296C38.0542 113.038 38.4958 119.159 40.0833 123.917C34.9667 125.871 30.1417 129.842 25.7417 135.834C25.2567 136.492 24.9951 137.289 24.9951 138.106C24.9951 138.924 25.2567 139.721 25.7417 140.379C30.1042 146.321 34.8875 150.279 39.9583 152.246C38.6083 156.863 38.0833 162.938 37.9625 170.904C37.9495 171.451 38.0487 171.994 38.254 172.501C38.4593 173.008 38.7662 173.467 39.1559 173.85C39.5456 174.234 40.0097 174.533 40.5197 174.73C41.0296 174.927 41.5746 175.018 42.1208 174.996ZM74.6667 138.104C74.6667 142.396 74.5 146.688 73.8167 150.75V160.859C77.8583 160.221 83.0958 159.338 89.2917 158.154V142.729H97.625V156.5C111.811 153.569 125.88 150.102 139.804 146.109V138.109H148.137V143.65C153.733 141.942 159.471 140.1 165.304 138.109C157.311 135.374 149.253 132.832 141.137 130.484L140.679 130.525L126.958 126.575C124.797 126.011 122.672 125.47 120.583 124.95V142.729H112.25V122.934C99.5353 119.94 86.7157 117.41 73.8167 115.35V125.459C74.4958 129.521 74.6667 133.813 74.6667 138.104ZM65.4833 150.021V126.188C64.9 123.021 63.9625 120.342 62.5292 118.134C60.3417 114.763 56.1292 111.259 46.4125 109.967C46.625 115.063 47.1042 118.634 47.9833 121.271L50.5167 128.863L43.05 131.713C40.4542 132.704 37.5792 134.679 34.5875 138.104C37.5458 141.496 40.4 143.467 42.9708 144.467L50.1083 147.242L47.9542 154.596C47.1625 157.3 46.6708 161.004 46.4333 166.238C56.1375 164.946 60.3417 161.446 62.5292 158.079C63.9625 155.871 64.9 153.192 65.4875 150.025M69.4333 108.067C64.6625 104.367 58.9708 101.484 52.0125 100.879C46.3708 100.388 43.125 98.671 41.575 96.8252C40.2 95.1877 39.5542 92.7127 40.8792 88.8794L41.7875 86.2544L39.7208 84.4044C37.075 82.0377 34.1458 77.9752 33.4792 73.6085C32.8875 69.7085 33.9667 64.7919 40.875 59.7877L43.8542 57.6335L42.0875 54.4044C40.9625 52.3502 39.9625 49.0294 40.5625 45.7544C41.1125 42.771 43.1083 39.1377 49.3375 36.2627L49.5208 36.1794L49.6917 36.0794C55.625 32.621 59.9 32.9877 62.8167 34.246C65.975 35.6002 68.1792 38.2877 69.1667 40.2877L70.7958 43.5794L74.2625 42.3835C82.325 39.5919 86.975 41.5252 89.8333 44.2544C93.0292 47.3044 94.675 52.0377 95.1 55.5585L95.4292 58.3085L98.0958 59.071C101.996 60.1835 103.654 62.1335 104.208 64.2002C104.833 66.5294 104.375 70.171 101.542 75.0669C99.4098 78.776 98.0731 82.8881 97.6167 87.1419C96.2958 93.696 97.075 100.3 99.5458 106.317C99.9125 107.796 100.296 109.225 100.658 110.584L100.804 111.117C100.876 111.378 100.939 111.636 100.992 111.892C89.9417 109.575 80.9083 108.017 74.7208 107.05C72.8923 106.76 71.0241 107.12 69.4333 108.067ZM141.892 122.025C133.57 119.641 125.195 117.443 116.775 115.434C112.719 112.362 109.519 108.303 107.479 103.642C106.229 98.4502 105.367 93.3877 105.833 88.5377C105.917 88.1294 106.014 87.721 106.125 87.3127C108.429 78.7044 114.012 73.5919 119.333 71.9919C124.283 70.5044 130.021 71.6877 134.667 78.0085L138.612 83.3835L144.721 80.7085C151.9 77.5585 157.454 79.4044 161 83.171C164.812 87.2252 167.092 94.4419 164.792 103.054C162.137 112.963 153.121 120.429 141.892 122.025Z" fill="#212842"/>
</svg>
