<svg width="200" height="200" viewBox="0 0 200 200" fill="none" xmlns="http://www.w3.org/2000/svg">
<path fill-rule="evenodd" clip-rule="evenodd" d="M174.75 31.0704L170.637 30.4163L169.558 26.3913L175.762 24.7246L174.75 31.0704ZM119.666 88.6954L116.121 90.8788L116.112 90.8704L116.1 90.8496L116.058 90.783L115.916 90.5454L115.416 89.6829C114.833 88.6624 114.271 87.6303 113.729 86.5871C112.014 83.3083 110.519 79.9188 109.254 76.4413C107.846 72.5079 106.637 68.0038 106.45 63.6454C106.266 59.3038 107.075 54.5913 110.308 50.8954C113.212 47.5788 118.687 44.5246 124.441 41.8829C130.404 39.1371 137.421 36.5038 144.066 34.2246C152.299 31.4138 160.613 28.8516 169 26.5413L169.416 26.4246L169.562 26.3829L170.646 30.4121L174.758 31.0663L174.733 31.2204L174.662 31.6621C174.246 34.2183 173.81 36.7712 173.354 39.3204C172.244 45.5896 171.033 51.8404 169.721 58.0704C168.237 65.0746 166.512 72.4163 164.683 78.5621C163.868 81.3721 162.913 84.1395 161.821 86.8538C160.871 89.1454 159.746 91.3704 158.379 92.9371C155.454 96.2788 150.9 97.3246 146.921 97.5913C142.771 97.8705 138.171 97.3663 134.033 96.6329C130.343 95.9687 126.688 95.1204 123.083 94.0913C121.608 93.6758 120.141 93.2312 118.683 92.7579L118.421 92.6663L118.35 92.6413L118.329 92.6371H118.321L119.666 88.6954ZM119.666 88.6954L116.121 90.8788L116.904 92.1496L118.321 92.6371L119.666 88.6954ZM122.466 85.2246C126.734 86.5514 131.076 87.6227 135.471 88.433C139.321 89.1121 143.171 89.4954 146.362 89.2788C149.733 89.0538 151.425 88.2288 152.104 87.4538C152.537 86.9538 153.246 85.7705 154.121 83.6621C155.101 81.2162 155.959 78.7228 156.691 76.1913C158.429 70.3579 160.1 63.2621 161.566 56.3496C162.974 49.6618 164.263 42.9497 165.433 36.2163L164.146 36.5913C159.525 37.9538 153.283 39.8746 146.771 42.1079C140.246 44.3454 133.525 46.8746 127.921 49.4538C122.104 52.1288 118.179 54.5579 116.579 56.3871C115.3 57.8454 114.641 60.0913 114.779 63.2871C114.912 66.4663 115.825 70.0788 117.1 73.6246C118.555 77.6369 120.351 81.5177 122.466 85.2246ZM42.7623 41.5579L41.6831 45.5829L37.5664 46.2371L36.5581 39.8954L42.7623 41.5579ZM83.1039 92.9454L86.6498 95.1246L86.6581 95.1163L86.6664 95.0996L86.6998 95.0454L86.8206 94.8455L87.2373 94.1371C89.2299 90.6578 90.9235 87.0155 92.2998 83.2496C93.4581 80.0163 94.4664 76.2705 94.6206 72.6204C94.7789 68.9829 94.1039 64.9246 91.2956 61.7163C88.8123 58.8746 84.2164 56.3413 79.5498 54.1913C74.6706 51.9454 68.9414 49.7954 63.5289 47.9413C56.8249 45.654 50.0538 43.5683 43.2248 41.6871L42.8831 41.5913L42.7623 41.5579L41.6831 45.5829L37.5664 46.2371L37.5873 46.3621L37.6456 46.7246L37.8706 48.0829C38.9946 54.8227 40.2601 61.5381 41.6664 68.2246C42.8748 73.9246 44.2831 79.9121 45.7748 84.9329C46.5248 87.4413 47.3081 89.7788 48.1289 91.7496C48.9081 93.6246 49.8623 95.5371 51.0623 96.9038C53.6456 99.8621 57.6164 100.737 60.9039 100.954C64.3706 101.187 68.1748 100.766 71.5706 100.17C75.835 99.408 80.04 98.3442 84.1539 96.9871L84.3664 96.9163L84.4289 96.8954L84.4498 96.8871L83.1039 92.9454ZM83.1039 92.9454L86.6498 95.1246L85.8664 96.3996L84.4498 96.8871L83.1039 92.9454ZM80.2998 89.4704C80.5637 88.9982 80.872 88.4246 81.2248 87.7496C82.2164 85.8413 83.4498 83.2413 84.4539 80.4329C85.4748 77.5913 86.1914 74.7371 86.2956 72.2663C86.4039 69.7704 85.8789 68.1829 85.0248 67.1996C83.8456 65.8579 80.8039 63.9413 76.0664 61.7621C71.5498 59.6829 66.1164 57.6371 60.8248 55.8246C56.2152 54.2505 51.5724 52.7752 46.8998 51.3996L46.9164 51.5038C47.6248 55.5038 48.6331 60.9038 49.8206 66.4996C51.0081 72.1079 52.3623 77.8454 53.7623 82.5579C54.4664 84.9163 55.1581 86.9538 55.8248 88.5538C56.5331 90.2496 57.0664 91.1121 57.3331 91.4204C57.6748 91.8079 58.7789 92.4621 61.4623 92.6413C63.9664 92.8079 67.0248 92.5079 70.1248 91.9621C73.5654 91.3444 76.9638 90.515 80.2998 89.4704ZM71.1748 129.191C70.1164 129.25 69.5998 129.4 69.4664 129.458C67.5789 130.312 61.8456 132.312 56.8956 134C54.3539 134.87 51.9164 135.687 50.1164 136.291L49.9998 136.333V158.845C50.7331 158.812 51.5206 158.783 52.3248 158.754C55.7748 158.629 59.8789 158.504 61.6581 158.579C69.1248 158.875 74.7331 160.641 79.9248 162.279L80.0373 162.316C84.9039 163.85 89.4123 165.258 95.3164 165.704C96.9831 165.829 98.6039 165.991 100.116 166.141H100.137C105.946 166.725 109.771 167.016 112.733 165.941C115.037 165.104 123.475 161.191 131.983 156.912C136.191 154.795 140.316 152.641 143.596 150.795C145.241 149.87 146.637 149.045 147.708 148.354C148.239 148.009 148.666 147.718 148.991 147.479L149.366 147.187L149.483 147.087C149.9 146.666 150.341 145.2 149.625 143.82C149.288 143.175 148.73 142.673 148.054 142.404C147.221 142.041 145.804 141.762 143.554 142.133C138.479 142.966 132.416 145.408 126.362 147.87L126.279 147.908C123.304 149.116 120.321 150.329 117.675 151.212C115.133 152.058 112.312 152.816 109.854 152.67C106.479 152.462 100.558 151.587 95.6748 150.795C92.8684 150.342 90.0656 149.867 87.2664 149.37L86.7248 149.275L86.5331 149.237L87.3248 140.97L106.366 141.2H106.408C106.631 141.176 106.851 141.134 107.066 141.075C107.725 140.908 108.854 140.495 110.275 139.491C110.712 139.179 111.287 138.604 111.825 137.833C112.047 137.511 112.236 137.197 112.391 136.891C110.07 136.742 107.763 136.416 105.491 135.916C104.254 135.647 103.027 135.334 101.812 134.979L101.671 134.937L78.3498 129.745L78.1289 129.708L77.2539 129.575C76.301 129.435 75.3435 129.328 74.3831 129.254C73.3161 129.164 72.2445 129.143 71.1748 129.191ZM79.1664 125.666L79.9206 121.57L79.9956 121.583L103.821 126.883L103.996 126.937L104.029 126.95L104.187 126.995L104.846 127.183C105.425 127.341 106.258 127.558 107.25 127.775C109.275 128.212 111.808 128.616 114.15 128.616C116.496 128.616 119.046 129.491 120.421 131.983C121.596 134.116 121.304 136.425 120.891 137.95C120.508 139.298 119.937 140.585 119.196 141.775C120.465 141.275 121.807 140.736 123.221 140.158L123.479 140.05C129.221 137.716 136.104 134.916 142.2 133.912C149.283 132.754 154.596 135.295 157.025 139.995C159.166 144.141 158.691 149.608 155.421 152.933C154.6 153.766 153.379 154.612 152.212 155.366C150.726 156.306 149.215 157.205 147.679 158.062C144.241 159.995 139.987 162.216 135.721 164.362C127.296 168.6 118.421 172.745 115.571 173.779C110.629 175.57 104.912 175 99.8331 174.491L99.3039 174.437C97.7668 174.28 96.2278 174.141 94.6873 174.02C87.7706 173.495 82.4706 171.825 77.6289 170.3L77.5248 170.266C72.3164 168.625 67.6248 167.162 61.3248 166.908C59.9414 166.854 56.2164 166.954 52.6248 167.087C50.6022 167.16 48.58 167.242 46.5581 167.333L46.0206 167.358L41.6623 167.558V130.325L45.3164 129.112C48.2815 128.127 51.2427 127.13 54.1998 126.12C59.3831 124.35 64.6081 122.512 66.0331 121.87C67.5623 121.179 69.2998 120.954 70.6914 120.87C72.1706 120.787 73.6914 120.85 75.0206 120.95C76.6203 121.077 78.2136 121.276 79.7956 121.545L79.8831 121.562H79.9081L79.9164 121.566H79.9248L79.1664 125.666Z" fill="#212842"/>
<path fill-rule="evenodd" clip-rule="evenodd" d="M146.458 55.1657C146.874 55.5213 147.216 55.9554 147.464 56.4431C147.712 56.9309 147.862 57.4627 147.904 58.0082C147.947 58.5538 147.881 59.1024 147.712 59.6227C147.543 60.143 147.272 60.6248 146.917 61.0407C134.496 75.5323 119.033 96.7698 112.208 114.032C112.007 114.541 111.707 115.005 111.326 115.399C110.946 115.792 110.491 116.106 109.989 116.323C109.487 116.541 108.947 116.657 108.399 116.666C107.852 116.675 107.309 116.575 106.8 116.374C106.291 116.173 105.827 115.873 105.434 115.492C105.041 115.111 104.726 114.657 104.509 114.155C104.292 113.653 104.175 113.112 104.166 112.565C104.158 112.018 104.257 111.475 104.458 110.966C111.804 92.3865 128.004 70.299 140.583 55.6198C141.303 54.7812 142.326 54.2626 143.428 54.1782C144.529 54.0938 145.619 54.4505 146.458 55.1698M64.0832 68.5323C63.6535 68.8715 63.2949 69.292 63.0278 69.7698C62.7607 70.2476 62.5903 70.7733 62.5265 71.317C62.4626 71.8606 62.5065 72.4116 62.6557 72.9382C62.8048 73.4649 63.0563 73.9571 63.3957 74.3865C72.7374 86.2407 82.9374 101.412 87.779 113.995C88.1947 114.999 88.9864 115.801 89.9852 116.23C90.984 116.659 92.1108 116.68 93.1253 116.29C94.1397 115.9 94.9615 115.128 95.4152 114.141C95.869 113.153 95.9188 112.027 95.554 111.003C90.2582 97.2365 79.4374 81.274 69.9374 69.2282C69.2537 68.3604 68.2535 67.7996 67.1564 67.6691C66.0594 67.5386 64.9513 67.8491 64.0832 68.5323Z" fill="#212842"/>
<path d="M25 120.832H50V174.999H25V120.832Z" fill="#212842"/>
</svg>
