<svg width="200" height="200" viewBox="0 0 200 200" fill="none" xmlns="http://www.w3.org/2000/svg">
<path fill-rule="evenodd" clip-rule="evenodd" d="M99.9998 174.999C141.421 174.999 175 141.42 175 99.9994C175 58.5785 141.421 24.9993 99.9998 24.9993C58.579 24.9993 24.9998 58.5785 24.9998 99.9994C24.9998 141.42 58.579 174.999 99.9998 174.999ZM99.9998 183.333C146.025 183.333 183.333 146.024 183.333 99.9994C183.333 53.9744 146.025 16.666 99.9998 16.666C53.9748 16.666 16.6665 53.9744 16.6665 99.9994C16.6665 146.024 53.9748 183.333 99.9998 183.333Z" fill="#212842"/>
<path fill-rule="evenodd" clip-rule="evenodd" d="M115.279 54.3498L125 92.3914V148.187C125 153.791 120.646 158.333 115.279 158.333H84.7208C79.3541 158.333 74.9999 153.791 74.9999 148.187V92.3914L84.7208 54.3498C84.7208 54.3498 79.8624 51.8081 79.8624 46.7373C79.8624 41.6664 82.2916 41.6664 89.5833 41.6664H110.417C117.708 41.6664 120.137 41.6664 120.137 46.7373C120.137 51.8081 115.279 54.3498 115.279 54.3498ZM84.5041 88.8539L94.4291 50.0081L94.4041 49.9956H105.596L105.571 50.0081L116.667 93.4373V94.9914L116.446 94.9873C114.936 94.9228 113.433 94.7557 111.946 94.4873C108.892 93.9123 106.679 92.9748 105.687 92.0456C99.8124 86.5623 92.0208 87.2623 88.0541 88.0039C86.8576 88.2308 85.6729 88.5117 84.5041 88.8539ZM116.667 103.325V145.833C116.667 146.938 116.228 147.998 115.446 148.779C114.665 149.561 113.605 150 112.5 150H87.4999C86.3949 150 85.335 149.561 84.5536 148.779C83.7722 147.998 83.3333 146.938 83.3333 145.833V98.1373C83.3333 98.1373 94.4458 92.9498 99.9999 98.1373C105.554 103.325 116.667 103.325 116.667 103.325ZM42.8874 40.8039C43.6688 40.0228 44.7284 39.584 45.8333 39.584C46.9381 39.584 47.9977 40.0228 48.7791 40.8039L71.6958 63.7206C72.4548 64.5064 72.8747 65.5589 72.8652 66.6514C72.8557 67.7439 72.4175 68.789 71.645 69.5615C70.8725 70.334 69.8274 70.7722 68.7349 70.7817C67.6424 70.7912 66.5899 70.3713 65.8041 69.6123L42.8874 46.6956C42.1063 45.9142 41.6675 44.8546 41.6675 43.7498C41.6675 42.6449 42.1063 41.5853 42.8874 40.8039Z" fill="#212842"/>
<path fill-rule="evenodd" clip-rule="evenodd" d="M155.387 161.278L117.887 123.778L123.779 117.887L161.279 155.387L155.387 161.278Z" fill="#212842"/>
<path d="M87.5 45.832H112.5V54.1654H87.5V45.832Z" fill="#212842"/>
</svg>
