<svg width="200" height="200" viewBox="0 0 200 200" fill="none" xmlns="http://www.w3.org/2000/svg">
<path d="M79.0417 37.5005C91.0617 25.4848 106.805 17.9058 123.694 16.0044C140.583 14.1029 157.618 17.9916 172.008 27.0338C180.176 40.0472 184.152 55.2543 183.399 70.6C182.646 85.9458 177.2 100.69 167.797 112.841C158.394 124.992 145.488 133.964 130.822 138.544C116.156 143.124 100.438 143.091 85.7917 138.45L79.0417 178.925L20.125 120L60.5833 113.25C56.4204 100.145 55.9404 86.148 59.1958 72.7885C62.4512 59.4289 69.3166 47.2215 79.0417 37.5005Z" stroke="#212842" stroke-width="10"/>
<path d="M155.65 93.3928C142.389 93.3928 129.671 88.125 120.295 78.7482C110.918 69.3714 105.65 56.6537 105.65 43.3928M129.133 40.4512L137.967 49.2845" stroke="#212842" stroke-width="10"/>
</svg>
