<svg width="200" height="200" viewBox="0 0 200 200" fill="none" xmlns="http://www.w3.org/2000/svg">
<path fill-rule="evenodd" clip-rule="evenodd" d="M183.333 99.9994C183.333 146.024 146.025 183.333 99.9998 183.333C53.9748 183.333 16.6665 146.024 16.6665 99.9994C16.6665 53.9744 53.9748 16.666 99.9998 16.666C146.025 16.666 183.333 53.9744 183.333 99.9994ZM150.004 155.899C136.267 168.224 118.455 175.027 99.9998 174.999C58.579 174.999 24.9998 141.42 24.9998 99.9994C24.9998 80.2577 32.6248 62.2994 45.0957 48.9035L61.6373 65.4452C62.4232 66.2042 63.4757 66.6242 64.5682 66.6147C65.6607 66.6052 66.7057 66.167 67.4783 65.3944C68.2508 64.6219 68.689 63.5768 68.6985 62.4844C68.708 61.3919 68.288 60.3394 67.529 59.5535L51.104 43.1285C64.696 31.4085 82.0527 24.9731 99.9998 24.9993C141.421 24.9993 175 58.5785 175 99.9994C175 119.208 167.775 136.737 155.9 150.004L120.296 114.404C123.066 112.166 125.3 109.336 126.835 106.123C128.37 102.91 129.166 99.3938 129.167 95.8327L120.158 97.2494C116.944 97.7535 113.867 98.9104 111.116 100.649C108.366 102.387 106.001 104.67 104.167 107.358V95.1785L109.008 94.416C114.627 93.5306 119.744 90.6684 123.44 86.3449C127.136 82.0213 129.166 76.5205 129.167 70.8327L120.158 72.2494C116.944 72.7535 113.867 73.9104 111.116 75.6488C108.366 77.3873 106.001 79.6705 104.167 82.3577V74.9994L106.104 73.0619C110.01 69.155 112.204 63.8569 112.204 58.3327C112.204 52.8084 110.01 47.5103 106.104 43.6035L99.9998 37.4994L93.8998 43.5993C89.9929 47.5063 87.798 52.8053 87.798 58.3306C87.798 63.8559 89.9929 69.1549 93.8998 73.0619L95.8332 74.9994V82.3577C93.9988 79.6705 91.6336 77.3873 88.8833 75.6488C86.133 73.9104 83.0559 72.7535 79.8415 72.2494L70.8332 70.8327C70.8333 76.5205 72.864 82.0213 76.5597 86.3449C80.2553 90.6684 85.3731 93.5306 90.9915 94.416L95.8332 95.1785V107.358C93.9988 104.67 91.6336 102.387 88.8833 100.649C86.133 98.9104 83.0559 97.7535 79.8415 97.2494L70.8332 95.8327C70.8333 101.52 72.864 107.021 76.5597 111.345C80.2553 115.668 85.3731 118.531 90.9915 119.416L95.8332 120.179V132.358C93.9988 129.67 91.6336 127.387 88.8833 125.649C86.133 123.91 83.0559 122.753 79.8415 122.249L70.8332 120.833C70.8333 126.52 72.864 132.021 76.5597 136.345C80.2553 140.668 85.3731 143.531 90.9915 144.416L95.8332 145.179V158.333H104.167V143.554C105.635 144.383 107.343 144.688 109.008 144.416C112.637 143.845 116.085 142.445 119.084 140.324C122.083 138.203 124.553 135.418 126.3 132.187L150.004 155.899ZM117.058 122.954L112.654 118.545C111.462 118.926 110.244 119.217 109.008 119.416L104.167 120.179V132.358C107.258 127.837 111.81 124.517 117.058 122.954Z" fill="#212842"/>
</svg>
